<svg xmlns="http://www.w3.org/2000/svg" xmlns:xlink="http://www.w3.org/1999/xlink" width="57" height="57" viewBox="0 0 57 57">
  <defs>
    <clipPath id="clip-iPhone_12_12_Pro_1">
      <rect width="57" height="57"/>
    </clipPath>
  </defs>
  <g id="iPhone_12_12_Pro_1" data-name="iPhone 12, 12 Pro – 1" clip-path="url(#clip-iPhone_12_12_Pro_1)">
    <g id="Group_21" data-name="Group 21" transform="translate(-1947.5 -862.05)">
      <path id="Path_16" data-name="Path 16" d="M134.356,21.571,114.3,1.449l-.043-.041a5.23,5.23,0,0,0-7.14,0l-.043.041L87.025,21.571a4.759,4.759,0,0,0-1.187,5.322,5.331,5.331,0,0,0,4.8,3.288h0a4.933,4.933,0,0,0,3.531-1.522l16.489-16.488L127.2,28.653A4.876,4.876,0,0,0,130.73,30.2a5.258,5.258,0,0,0,4.778-3.311A4.746,4.746,0,0,0,134.356,21.571Zm-5.768,5.711L110.657,9.419,92.794,27.282c-2.886,2.886-7.351-1.443-4.4-4.328l20.061-20.13a3.284,3.284,0,0,1,4.466,0l20.061,20.13C135.87,25.77,131.473,30.236,128.588,27.282Z" transform="translate(1865.323 864.9)" fill="#6259fa"/>
      <path id="Path_17" data-name="Path 17" d="M134.356,21.571,114.3,1.449l-.043-.041a5.23,5.23,0,0,0-7.14,0l-.043.041L87.025,21.571a4.759,4.759,0,0,0-1.187,5.322,5.331,5.331,0,0,0,4.8,3.288h0a4.933,4.933,0,0,0,3.531-1.522l16.489-16.488L127.2,28.653A4.876,4.876,0,0,0,130.73,30.2a5.258,5.258,0,0,0,4.778-3.311A4.746,4.746,0,0,0,134.356,21.571Zm-5.768,5.711L110.657,9.419,92.794,27.282c-2.886,2.886-7.351-1.443-4.4-4.328l20.061-20.13a3.284,3.284,0,0,1,4.466,0l20.061,20.13C135.87,25.77,131.473,30.236,128.588,27.282Z" transform="translate(1865.323 886)" fill="#6259fa"/>
    </g>
  </g>
</svg>
